<svg width="172" height="199" viewBox="0 0 172 199" fill="none" xmlns="http://www.w3.org/2000/svg">
<path opacity="0.6" d="M8.65906 27.7462C10.042 17.0376 18.4058 8.57086 29.0967 7.0571L65.812 1.85848C79.2039 -0.0377143 92.7961 -0.0377159 106.188 1.85848L142.903 7.0571C153.594 8.57085 161.958 17.0376 163.341 27.7462L170.618 84.0964C172.199 96.3412 172.199 108.738 170.618 120.983L163.577 175.509C162.086 187.051 152.53 195.86 140.906 196.409L86 199L31.0943 196.409C19.4698 195.86 9.91398 187.051 8.42347 175.509L1.38184 120.983C-0.199486 108.738 -0.199489 96.3412 1.38183 84.0964L8.65906 27.7462Z" fill="white"/>
</svg>
