<svg width="869" height="757" viewBox="0 0 869 757" fill="none" xmlns="http://www.w3.org/2000/svg">
<path d="M0 408.025C0 236.691 0 151.024 43.253 91.3975C58.6055 70.2333 77.499 51.8805 99.0999 37.1488C159.957 -4.35544 245.588 -1.86903 416.849 3.10378L508.501 5.76501C672.693 10.5325 754.789 12.9163 807.709 62.1001C812.5 66.5531 817.061 71.248 821.373 76.1665C869 130.492 869 212.622 869 376.884V376.884C869 545.982 869 630.532 819.737 685.946C815.281 690.959 810.569 695.738 805.621 700.265C750.913 750.311 666.372 751.515 497.291 753.922L352.939 755.976C207.732 758.043 135.128 759.077 83.6858 723.311C65.4159 710.609 49.4548 694.874 36.4938 676.786C0 625.858 0 553.247 0 408.025V408.025Z" fill="#FFF5F5"/>
</svg>
