<svg width="100" height="100" viewBox="0 0 100 100" fill="none" xmlns="http://www.w3.org/2000/svg">
<path d="M0 50.233C0 31.5458 0 22.2022 3.81481 15.2696C6.72492 9.98101 11.1202 5.69365 16.4395 2.95487C23.4124 -0.635356 32.6007 -0.254438 50.9772 0.507397L54.5078 0.653765C71.7825 1.36992 80.4199 1.728 86.7802 5.78615C90.7065 8.29127 93.9652 11.7402 96.2686 15.8283C100 22.4508 100 31.2971 100 48.9897C100 68.1204 100 77.6858 95.9808 84.7591C93.3477 89.3929 89.5606 93.2409 85 95.9162C78.0385 100 68.6923 100 50 100H48.9804C31.2529 100 22.3892 100 15.6988 96.3136C10.5912 93.4993 6.39791 89.2387 3.62814 84.0491C0 77.2513 0 68.2452 0 50.233Z" fill="white"/>
</svg>
