<svg width="770" height="848" viewBox="0 0 770 848" fill="none" xmlns="http://www.w3.org/2000/svg">
<path d="M0 420.456C0 237.238 0 145.628 48.9047 83.7484C61.5884 67.6995 76.3833 53.4387 92.8874 41.3532C156.522 -5.24467 248.07 -1.87846 431.165 4.85395V4.85395C576.022 10.1803 648.45 12.8435 697.977 52.4847C710.866 62.8006 722.37 74.7357 732.205 87.9945C770 138.945 770 211.422 770 356.377V460.997C770 637.06 770 725.091 716.815 781.445C715.039 783.327 713.225 785.174 711.375 786.984C655.989 841.176 567.973 842.762 391.939 845.935V845.935C210.013 849.214 119.05 850.854 61.2244 796.33C59.2976 794.514 57.4081 792.658 55.557 790.764C0 733.931 0 642.953 0 460.998L0 420.456Z" fill="#F7E1EF"/>
</svg>
