<svg width="770" height="796" viewBox="0 0 770 796" fill="none" xmlns="http://www.w3.org/2000/svg">
<path d="M0 419.582C0 236.654 0 145.19 48.8134 83.3437C61.4438 67.341 76.1723 53.1127 92.6016 41.0426C156.097 -5.60574 247.507 -2.44691 430.326 3.87077V3.87077C575.546 8.88916 648.157 11.3983 697.823 51.0668C710.714 61.3635 722.225 73.2789 732.071 86.5186C770 137.525 770 210.179 770 355.486V409.423C770 585.66 770 673.779 716.744 730.147C714.966 732.03 713.15 733.877 711.298 735.687C655.839 789.89 567.733 791.382 391.521 794.367L371.608 794.705C209.081 797.458 127.817 798.835 72.8628 754.68C62.7128 746.525 53.4051 737.374 45.079 727.363C0 673.164 0 591.889 0 429.339L0 419.582Z" fill="#F7E1EF"/>
</svg>
