<svg width="770" height="577" viewBox="0 0 770 577" fill="none" xmlns="http://www.w3.org/2000/svg">
<path d="M0 306.725C0 209.48 0 160.858 16.106 122.873C37.349 72.772 77.818 33.298 128.432 13.3085C166.806 -1.84713 215.414 -0.636986 312.628 1.7833L477.539 5.88899C575.943 8.33889 625.145 9.56384 663.131 28.3545C702.338 47.7493 733.748 79.9504 752.161 119.628C770 158.07 770 207.287 770 305.722V305.722C770 394.401 770 438.741 753.854 473.211C737.191 508.785 708.787 537.538 673.418 554.634C639.148 571.199 594.812 571.741 506.139 572.823L272.255 575.677C187.487 576.712 145.103 577.229 111.669 563.656C67.5717 545.754 32.4187 511.028 13.9799 467.152C0 433.886 0 391.499 0 306.725V306.725Z" fill="#F7E1EF"/>
</svg>
