<svg width="430" height="96" viewBox="0 0 430 96" fill="none" xmlns="http://www.w3.org/2000/svg">
<path d="M1.09366e-06 91.0201L-4.28372e-06 1.52588e-05L430 -3.53711e-06L430 91.0201L413.779 88.5579C409.302 87.8783 404.739 88.0111 400.308 88.9498L394.564 90.1671C391.926 90.7261 389.188 90.5886 386.619 89.768L384.159 88.9823C381.282 88.0631 378.144 88.4832 375.609 90.1268C374.697 90.7185 373.695 91.1585 372.642 91.43L366.421 93.0342C362.657 94.0048 358.719 94.0865 354.918 93.273L349.047 92.0165C346.074 91.3803 342.971 91.9927 340.463 93.7103C336.688 96.2959 331.712 96.2959 327.936 93.7102L327.732 93.5703C325.339 91.9316 322.414 91.2622 319.546 91.6974L308.941 93.3072C303.714 94.1006 298.379 93.8131 293.267 92.4624L287.808 91.0201L280.1 89.6453C272.261 88.2473 264.116 88.3326 256.3 89.8533C252.35 90.6219 248.277 91.0201 244.253 91.0201L239.609 91.0201C235.143 91.0201 230.714 90.2159 226.533 88.646C218.594 85.6652 209.875 85.486 201.821 88.138L193.068 91.0201L192.404 91.3325C183.451 95.5439 173.063 95.4288 164.206 91.0201L162.549 90.345C158.123 88.5406 153.166 88.5406 148.74 90.345C147.638 90.794 146.496 91.1345 145.328 91.3617L141.8 92.0482C133.477 93.6676 124.893 93.3428 116.716 91.0992L116.428 91.0201L108.413 89.3547C102.608 88.1485 96.6312 88.0095 90.7761 88.9447L86.2101 89.674C80.6895 90.5557 75.034 89.9606 69.8179 87.9491C63.2481 85.4157 56.0215 85.1435 49.2798 87.1758L46.1272 88.1261C39.876 90.0104 33.1984 89.941 26.9878 87.927C19.2841 85.4289 10.9203 85.9393 3.57759 89.3556L1.09366e-06 91.0201Z" fill="#FCD244"/>
</svg>
