<svg width="370" height="238" viewBox="0 0 370 238" fill="none" xmlns="http://www.w3.org/2000/svg">
<path d="M0 119.164C0 62.1781 0 33.685 17.8363 16.3146C35.6726 -1.05589 64.1557 -0.302058 121.122 1.20561L240.832 4.37385C301.214 5.97192 331.405 6.77096 350.281 25.5718C350.763 26.0519 351.238 26.5393 351.705 27.0338C370 46.4009 370 76.6026 370 137.006V137.006C370 184.111 370 207.664 355.617 222.499C355.25 222.878 354.878 223.25 354.499 223.617C339.664 238 316.111 238 269.006 238H102C53.9167 238 29.8751 238 14.9376 223.062C0 208.125 0 184.083 0 136L0 119.164Z" fill="white"/>
</svg>
