<svg width="1600" height="116" viewBox="0 0 1600 116" fill="none" xmlns="http://www.w3.org/2000/svg">
<path d="M-2 8L11.6034 5.27932C21.6587 3.26827 26.6863 2.26274 31.7617 1.79799C35.9372 1.41565 40.1332 1.30727 44.3228 1.47354C49.4154 1.67566 54.4883 2.4203 64.6339 3.90957L73.881 5.26694C75.2756 5.47164 75.9729 5.574 76.6665 5.66551C87.1447 7.04789 97.7793 6.69049 108.141 4.60773C108.827 4.46984 109.516 4.32091 110.893 4.02303C112.287 3.72173 112.984 3.57108 113.678 3.43175C124.158 1.32701 134.916 0.987345 145.507 2.42677C146.209 2.52206 146.913 2.62845 148.323 2.84124L158.509 4.37879C168.082 5.8237 172.868 6.54615 177.681 6.78461C180.891 6.94367 184.107 6.94141 187.317 6.77784C192.13 6.53262 196.915 5.80344 206.485 4.34508L211.608 3.56451C220.231 2.25048 224.543 1.59347 228.875 1.32949C232.952 1.08106 237.041 1.09311 241.117 1.36556C245.448 1.65506 249.755 2.33747 258.371 3.70229L265.686 4.8611C268.386 5.28894 269.737 5.50286 271.083 5.67726C280.633 6.9145 290.316 6.70766 299.805 5.0637C301.142 4.83196 302.482 4.56057 305.162 4.01779C307.866 3.47019 309.218 3.19639 310.567 2.96296C320.14 1.30693 329.908 1.1135 339.539 2.38927C340.896 2.56911 342.258 2.78917 344.981 3.22931L351.155 4.22715C359.084 5.50853 363.048 6.14922 367.03 6.45674C372.002 6.84066 376.996 6.83665 381.967 6.44474C385.949 6.13082 389.912 5.48376 397.838 4.18964L398.938 4.01013C408.007 2.52945 412.542 1.78912 417.102 1.48452C421.362 1.1999 425.638 1.1999 429.898 1.48452C434.458 1.78912 438.993 2.52945 448.062 4.01013L449.487 4.24285C458.783 5.76052 463.431 6.51936 468.112 6.82027C471.047 7.00896 473.989 7.06268 476.928 6.98126C481.617 6.85141 486.289 6.26275 495.634 5.08543L512.795 2.92344C524.383 1.46351 530.177 0.73355 536.003 0.709621C541.828 0.685692 547.628 1.36803 559.228 2.73271L578.399 4.98811C591.18 6.49181 597.571 7.24366 603.986 7.13876C610.401 7.03386 616.763 6.07344 629.489 4.15261L630.717 3.96729C643.838 1.98678 650.398 0.996529 657.011 0.915551C663.624 0.834573 670.207 1.66389 683.372 3.32252L698.875 5.27556C706.209 6.19955 709.876 6.66155 713.551 6.8407C718.165 7.06565 722.789 6.95727 727.387 6.5164C731.05 6.16529 734.691 5.532 741.974 4.26541C750.286 2.8198 754.442 2.09699 758.62 1.74147C763.867 1.29507 769.14 1.281 774.389 1.6994C778.569 2.03263 782.729 2.73325 791.049 4.13449L791.706 4.24518C799.649 5.58307 803.621 6.25202 807.617 6.58591C811.877 6.942 816.157 7.01305 820.427 6.7986C824.431 6.59752 828.423 6.06079 836.407 4.98735L862.771 1.44251C869.881 0.486552 877.096 0.632286 884.162 1.87458L885.038 2.02863C892.456 3.33287 900.044 3.33287 907.462 2.02863C915.092 0.687099 922.901 0.725747 930.517 2.14273L947.452 5.29344C957.034 7.07616 966.891 6.7379 976.328 4.30246C987.264 1.48038 998.736 1.48038 1009.67 4.30246L1010.72 4.57384C1019.49 6.837 1028.62 7.39962 1037.6 6.23132L1062.53 2.98745C1071.36 1.83929 1075.77 1.26521 1080.2 1.10082C1083.72 0.970188 1087.24 1.03325 1090.76 1.28972C1095.17 1.61246 1099.56 2.34411 1108.34 3.8074L1109.73 4.03902C1118.01 5.4185 1122.15 6.10825 1126.31 6.43452C1131.1 6.81014 1135.91 6.82575 1140.7 6.48124C1144.86 6.18199 1149.01 5.51913 1157.29 4.19342L1167.11 2.62228C1177.95 0.888018 1189.01 1.10231 1199.78 3.25508L1210.72 5.44326C1219.1 7.1194 1227.77 6.60624 1235.89 3.95333C1243.84 1.35967 1252.3 0.810308 1260.52 2.35602L1272.18 4.55177C1272.19 4.55283 1272.19 4.55336 1272.19 4.55388C1284.28 6.82933 1296.7 6.75894 1308.77 4.34655C1308.77 4.34599 1308.77 4.34544 1308.78 4.34432L1310.38 4.02327C1312.01 3.6987 1312.82 3.53641 1313.63 3.38926C1324.79 1.35461 1336.22 1.31482 1347.4 3.27172C1348.21 3.41325 1349.02 3.56988 1350.64 3.88316L1353.08 4.35236C1353.49 4.4311 1353.69 4.47047 1353.89 4.50864C1365.86 6.76127 1378.14 6.71853 1390.08 4.38269C1390.28 4.34311 1390.49 4.30232 1390.9 4.22074L1394.1 3.5798C1405.89 1.2213 1418.06 1.44647 1429.75 4.23982C1440.15 6.72333 1450.93 7.17965 1461.51 5.58382L1483.87 2.20787C1493.52 0.752225 1503.36 1.34027 1512.76 3.93384C1522.47 6.61265 1532.65 7.15094 1542.59 5.5115L1550.93 4.13562C1553.71 3.67725 1555.1 3.44807 1556.47 3.2615C1569.33 1.52211 1582.4 2.40611 1594.91 5.86014C1596.25 6.23062 1597.6 6.64475 1600.29 7.47301L1602 8V108L1592.85 110.524C1579.81 114.12 1566.1 114.487 1552.89 111.591C1542.07 109.221 1530.89 109.031 1520 111.034L1511.32 112.631C1506.85 113.453 1504.61 113.864 1502.37 114.168C1496.13 115.015 1489.81 115.245 1483.52 114.854C1481.26 114.714 1479 114.466 1474.49 113.971L1437.89 109.96C1433.8 109.512 1431.76 109.288 1429.71 109.152C1423.27 108.723 1416.79 108.945 1410.39 109.817C1408.36 110.092 1406.34 110.456 1402.29 111.184L1389.89 113.414C1380.41 115.118 1370.67 114.754 1361.35 112.347L1360.87 112.225C1350.14 109.455 1338.87 109.477 1328.14 112.29C1318.83 114.733 1309.09 115.076 1299.63 113.295L1290.24 111.527C1288.25 111.152 1287.25 110.965 1286.26 110.799C1276.48 109.17 1266.5 109.065 1256.69 110.49C1255.69 110.635 1254.69 110.801 1252.69 111.135L1243.72 112.631C1240.11 113.232 1238.31 113.532 1236.51 113.763C1227.88 114.867 1219.14 114.794 1210.53 113.546C1208.74 113.285 1206.94 112.954 1203.34 112.293L1198.23 111.352C1186.2 109.14 1173.85 109.367 1161.91 112.021C1150.09 114.647 1137.86 114.897 1125.95 112.754L1117.68 111.269C1105.68 109.112 1093.37 109.4 1081.49 112.117C1070.27 114.682 1058.66 115.083 1047.28 113.299L1030.85 110.721C1019.39 108.924 1007.69 109.347 996.393 111.967C984.908 114.63 973.014 115.023 961.379 113.123L952.44 111.664C945.817 110.582 942.505 110.042 939.184 109.734C933.077 109.168 926.931 109.189 920.828 109.796C917.509 110.126 914.201 110.689 907.585 111.815L904.697 112.307C896.548 113.694 892.473 114.388 888.371 114.728C884.778 115.027 881.172 115.123 877.569 115.016C873.455 114.893 869.349 114.417 861.137 113.465L826.332 109.43C818.207 108.488 809.974 109.315 802.199 111.854C793.847 114.581 784.976 115.33 776.286 114.042L757.201 111.215C750.547 110.229 747.22 109.736 743.885 109.478C738.311 109.045 732.71 109.101 727.146 109.643C723.816 109.968 720.5 110.526 713.867 111.643L708.349 112.573C704.892 113.155 703.163 113.446 701.437 113.673C692.527 114.843 683.496 114.756 674.61 113.415C672.888 113.155 671.166 112.831 667.72 112.183L665.674 111.798C663.939 111.471 663.072 111.308 662.209 111.161C651.157 109.289 639.862 109.367 628.836 111.391C627.975 111.549 627.11 111.725 625.38 112.075C623.713 112.413 622.879 112.581 622.049 112.734C611.423 114.693 600.543 114.843 589.867 113.179C589.033 113.049 588.195 112.903 586.519 112.612L581.794 111.79C576.042 110.79 573.166 110.29 570.283 109.966C563.445 109.199 556.544 109.169 549.7 109.877C546.814 110.175 543.934 110.65 538.174 111.6L534.738 112.167C526.283 113.562 522.056 114.259 517.804 114.577C513.6 114.892 509.38 114.929 505.171 114.689C500.915 114.446 496.676 113.824 488.197 112.579L481.791 111.639C469.413 109.822 463.224 108.914 456.987 108.814C450.75 108.714 444.535 109.425 432.105 110.845L411.492 113.201C400.093 114.504 394.393 115.155 388.676 115.125C387.572 115.12 386.468 115.095 385.365 115.051C379.652 114.824 373.987 113.918 362.658 112.105C350.718 110.195 344.749 109.24 338.729 109.039C337.566 109 336.404 108.983 335.241 108.986C329.217 109.004 323.221 109.778 311.229 111.325L295.31 113.379C289.611 114.115 286.762 114.482 283.91 114.679C277.994 115.086 272.053 114.945 266.163 114.256C263.323 113.924 260.495 113.421 254.838 112.416L250.612 111.664C247.862 111.175 246.487 110.931 245.116 110.728C235.105 109.245 224.923 109.354 214.946 111.052C213.58 111.284 212.21 111.558 209.471 112.106C206.872 112.626 205.572 112.886 204.275 113.108C194.806 114.733 185.147 114.928 175.62 113.685C174.315 113.515 173.006 113.308 170.388 112.893L152.528 110.064C143.954 108.706 135.183 109.303 126.873 111.812C117.766 114.561 108.12 115.012 98.7972 113.123L84.7678 110.282C77.403 108.79 69.7678 109.389 62.7252 112.009C55.7138 114.618 48.1144 115.223 40.7786 113.756L27.8114 111.162C17.6161 109.123 7.0273 110.842 -2 116V8Z" fill="white"/>
</svg>
