<svg width="430" height="357" viewBox="0 0 430 357" fill="none" xmlns="http://www.w3.org/2000/svg">
<path d="M0 357L-1.49447e-05 6.10529L23.6899 8.34766C43.6171 10.2339 63.7144 9.11798 83.3103 5.03732L85.4549 4.59072C100.105 1.5399 115.052 0.142992 130.014 0.42624L141.916 0.651564C154.766 0.894813 167.548 2.56746 180.027 5.63861L184.361 6.70525C204.571 11.679 225.588 12.4417 246.105 8.94597V8.94597C261.116 6.38838 276.427 6.10503 291.522 8.10544L322.5 12.2105L361.156 12.9423C371.204 13.1326 381.253 12.5651 391.216 11.2449L430 6.10527L430 357L0 357Z" fill="#B6A3FA"/>
</svg>
