<svg width="570" height="630" viewBox="0 0 570 630" fill="none" xmlns="http://www.w3.org/2000/svg" xmlns:xlink="http://www.w3.org/1999/xlink">
<path d="M0 271.241C0 136.947 0 69.7998 42.7191 30.8345C85.4381 -8.1307 152.302 -1.97218 286.03 10.3449L361.095 17.2587C460.318 26.3977 509.929 30.9672 539.965 63.8961C570 96.8251 570 146.647 570 246.289V352C570 483.05 570 548.576 529.288 589.288C488.576 630 423.05 630 292 630H230C121.577 630 67.3654 630 33.6827 596.317C0 562.635 0 508.423 0 400V271.241Z" fill="url(#pattern0)"/>
<defs>
<pattern id="pattern0" patternContentUnits="objectBoundingBox" width="1" height="1">
<use xlink:href="#image0_1_270" transform="translate(-0.349896) scale(0.000414988 0.000366166)"/>
</pattern>
<image id="image0_1_270" width="4096" height="2731" xlink:href="https://www.freecodecamp.org/news/content/images/size/w2000/2022/09/jonatan-pie-3l3RwQdHRHg-unsplash.jpg"/>
</defs>
</svg>