<svg width="570" height="488" viewBox="0 0 570 488" fill="none" xmlns="http://www.w3.org/2000/svg" xmlns:xlink="http://www.w3.org/1999/xlink">
<path d="M0 260.957C0 136.778 0 74.6878 38.0967 36.3661C39.3684 35.0869 40.6664 33.834 41.9899 32.6084C81.6365 -4.10737 143.687 -1.90871 267.789 2.4886L359.322 5.73189C453.371 9.06433 500.396 10.7305 531.325 38.1739C535.763 42.1121 539.891 46.388 543.669 50.9631C570 82.8449 570 129.899 570 224.007C570 341.49 570 400.232 536.751 439.21C531.989 444.792 526.792 449.989 521.209 454.751C482.232 488 423.49 488 306.007 488H227.043C121.494 488 68.7205 488 35.3416 455.943C34.2248 454.87 33.1296 453.775 32.057 452.658C0 419.28 0 366.505 0 260.957Z" fill="url(#pattern0)"/>
<defs>
<pattern id="pattern0" patternContentUnits="objectBoundingBox" width="1" height="1">
<use xlink:href="#image0_1_1432" transform="translate(-0.15099) scale(0.00130198 0.00149925)"/>
</pattern>
<image id="image0_1_1432" width="1000" height="667" xlink:href="https://www.freecodecamp.org/news/content/images/size/w2000/2022/09/jonatan-pie-3l3RwQdHRHg-unsplash.jpg"/>
</defs>
</svg>