<svg class="md:w-[430px] aus_founder_svg_img" width="" height="" viewBox="0 0 570 630" fill="none" xmlns="http://www.w3.org/2000/svg" xmlns:xlink="http://www.w3.org/1999/xlink">
                <path d="M0 271.241C0 136.947 0 69.7998 42.7191 30.8345C85.4381 -8.1307 152.302 -1.97218 286.03 10.3449L361.095 17.2587C460.318 26.3977 509.929 30.9672 539.965 63.8961C570 96.8251 570 146.647 570 246.289V352C570 483.05 570 548.576 529.288 589.288C488.576 630 423.05 630 292 630H230C121.577 630 67.3654 630 33.6827 596.317C0 562.635 0 508.423 0 400V271.241Z" fill="url(#pattern0template--17571431612697__9cb2f6b3-c677-4edc-9ac9-de68794ac02a)"></path>
                <defs>
                    <pattern id="pattern0template--17571431612697__9cb2f6b3-c677-4edc-9ac9-de68794ac02a" patternContentUnits="objectBoundingBox" width="1" height="1">
                        <use xlink:href="#image0_1_270template--17571431612697__9cb2f6b3-c677-4edc-9ac9-de68794ac02a" transform="translate(-0.349896) scale(0.000414988 0.000366166)"></use>
                    </pattern>
                    <image id="image0_1_270template--17571431612697__9cb2f6b3-c677-4edc-9ac9-de68794ac02a" width="4096" height="2731" xlink:href="//cdn.shopify.com/s/files/1/0691/3261/5961/files/Rectangle_15_2.png?v=1673852397"></image>
                </defs>
            </svg>