<svg width="291" height="988" viewBox="0 0 291 988" fill="none" xmlns="http://www.w3.org/2000/svg">
<path d="M11 0H293V988H11L16.6443 950.728C17.0445 948.085 17.2446 946.764 17.3948 945.445C18.1701 938.64 17.9704 931.758 16.8015 925.009C16.5751 923.701 16.2986 922.394 15.7457 919.779L12.955 906.578C11.6737 900.517 11.989 894.227 13.87 888.325L15.6735 882.665C17.7796 876.057 16.8165 868.853 13.0487 863.03C11.6918 860.933 10.6827 858.63 10.0604 856.211L6.38299 841.916C4.15804 833.268 3.97059 824.22 5.83538 815.487L8.71724 801.99C10.175 795.163 8.77102 788.037 4.83269 782.273C-1.09649 773.595 -1.09647 762.169 4.83273 753.492L5.15331 753.023C8.91091 747.523 10.4456 740.804 9.44829 734.219L5.757 709.843C5.23283 706.382 4.97074 704.651 4.79393 702.926C4.02972 695.469 4.4347 687.938 5.99422 680.606C6.35504 678.91 6.80122 677.217 7.69359 673.832L11 661.289L14.3076 642.701C16.6471 629.552 17.8169 622.978 17.765 616.339C17.7131 609.7 16.4407 603.144 13.8959 590.034L13.6386 588.709C12.3203 581.917 11.6612 578.522 11.3306 575.084C11 571.646 11 568.187 11 561.269V550.542C11 548.078 11 546.846 11.0415 545.624C11.2787 538.644 12.5302 531.736 14.7565 525.116C15.1464 523.957 15.5785 522.804 16.4428 520.497C18.1037 516.063 18.9342 513.846 19.6034 511.638C23.4413 498.98 23.7177 485.508 20.4023 472.703C19.8242 470.47 19.0853 468.22 17.6077 463.722L11 443.607L10.2833 442.08C9.78086 441.009 9.52966 440.474 9.29819 439.96C0.604151 420.653 0.849238 398.498 9.96825 379.388C10.211 378.88 10.474 378.35 11 377.291L12.548 373.485C16.6848 363.313 16.6848 351.928 12.548 341.757C11.5185 339.225 10.7378 336.6 10.217 333.917L8.64264 325.806C6.21694 313.31 5.00409 307.062 4.89598 300.762C4.85076 298.127 4.95027 295.491 5.19408 292.867C5.77687 286.593 7.4574 280.454 10.8185 268.176L11 267.513L14.8175 249.098C16.3171 241.864 17.0669 238.247 17.4426 234.598C17.8331 230.805 17.9216 226.987 17.7075 223.181C17.5014 219.518 16.9202 215.87 15.7577 208.574L14.0852 198.078C14.0464 197.835 14.027 197.713 14.0083 197.593C12.0806 185.227 13.4095 172.573 17.8639 160.877C17.9071 160.763 17.9513 160.648 18.0399 160.418C18.152 160.127 18.2081 159.981 18.2622 159.839C23.8595 145.104 24.467 128.94 19.9916 113.827C19.9484 113.681 19.9034 113.531 19.8134 113.232L17.6339 105.985C17.473 105.45 17.3926 105.182 17.3158 104.92C13.3131 91.2337 13.4643 76.6673 17.7503 63.0672C17.8325 62.8064 17.9184 62.5407 18.0904 62.0093C18.3052 61.3452 18.4126 61.0132 18.5136 60.6908C23.7991 43.8141 22.6884 25.5825 15.3933 9.47227C15.254 9.16448 15.107 8.84793 14.8132 8.21484L11 0Z" fill="#FCD244"/>
</svg>
